<svg xmlns="http://www.w3.org/2000/svg" width="107.462" height="41.565" viewBox="0 0 107.462 41.565">
    <defs>
        <style>
            .cls-1{fill:#139cd5}.cls-2{fill:#1d415f}
        </style>
    </defs>
    <g id="Group_24" data-name="Group 24" transform="translate(-2476.255 -1519.515)">
        <g id="Group_18" data-name="Group 18" transform="translate(2476.262 1519.515)">
            <path id="Path_40" d="M1776.341 5190.2l-20.4-3.032v1.613l12.931 4.785c-4.633 1.99-10.03 4.2-12.931 5.354v9.428l20.4-12.96z" class="cls-1" data-name="Path 40" transform="translate(-1755.943 -5187.171)"/>
        </g>
        <g id="Group_19" data-name="Group 19" transform="translate(2476.262 1532.062)">
            <path id="Path_41" d="M1776.341 5562.81l-4.725-.722-5.06 3.209 2.318.877c-4.634 1.991-10.034 4.2-12.93 5.353v9.408l20.4-12.938z" class="cls-1" data-name="Path 41" transform="translate(-1755.943 -5562.088)"/>
        </g>
        <g id="Group_20" data-name="Group 20" transform="translate(2476.255 1542.229)">
            <path id="Path_42" d="M1771.4 5865.88l-5.06 3.21 2.318.875c-4.632 1.99-10.029 4.2-12.93 5.355l-.008 9.41 20.405-12.941v-5.189z" class="cls-1" data-name="Path 42" transform="translate(-1755.718 -5865.88)"/>
        </g>
        <g id="Group_21" data-name="Group 21" transform="translate(2553.868 1519.515)">
            <path id="Path_43" d="M4074.795 5228.736l15.156-41.565h9.163l-11.676 33.552h17.2l-2.475 8.013z" class="cls-2" data-name="Path 43" transform="translate(-4074.795 -5187.171)"/>
        </g>
        <g id="Group_22" data-name="Group 22" transform="translate(2500.886 1519.515)">
            <path id="Path_44" d="M2503.667 5215.663l-1.108-28.492H2491.7l2.466 41.565h16.583l15.976-41.565h-10.831z" class="cls-2" data-name="Path 44" transform="translate(-2491.698 -5187.171)"/>
        </g>
        <g id="Group_23" data-name="Group 23" transform="translate(2533.285 1519.515)">
            <path id="Path_45" fill="#1e415f" d="M3470.9 5228.736h-11.116l10.836-32.382h-10.095l3.507-9.183h29.712l-3.447 9.183h-8.56z" data-name="Path 45" transform="translate(-3459.782 -5187.171)"/>
        </g>
    </g>
</svg>
