<?xml version="1.0" standalone="no"?>
<!DOCTYPE svg PUBLIC "-//W3C//DTD SVG 20010904//EN"
 "http://www.w3.org/TR/2001/REC-SVG-20010904/DTD/svg10.dtd">
<svg version="1.0" xmlns="http://www.w3.org/2000/svg"
 width="512.000000pt" height="512.000000pt" viewBox="0 0 512.000000 512.000000"
 preserveAspectRatio="xMidYMid meet">

<g transform="translate(0.000000,512.000000) scale(0.100000,-0.100000)"
fill="#c78665" stroke="none">
<path d="M2415 5104 c-38 -8 -113 -36 -165 -61 -78 -39 -109 -61 -176 -128
-65 -66 -89 -99 -127 -176 -67 -136 -77 -201 -77 -483 0 -252 10 -341 51 -438
30 -71 83 -155 127 -201 l36 -37 -90 -91 -91 -91 -242 -34 c-133 -18 -261 -38
-284 -45 -122 -32 -253 -146 -312 -271 -30 -65 -44 -132 -130 -603 -53 -291
-98 -537 -101 -546 -4 -14 -24 -17 -112 -21 -95 -4 -116 -8 -175 -36 -92 -43
-159 -108 -205 -201 l-37 -75 0 -626 0 -626 37 -75 c46 -93 112 -158 206 -202
l67 -32 755 -3 c559 -2 762 0 783 9 30 13 57 55 57 89 0 29 -26 76 -47 86 -10
5 -356 11 -769 14 l-750 5 -42 28 c-23 15 -54 46 -69 69 l-28 42 0 596 0 596
28 42 c15 23 46 54 69 69 l42 28 1916 0 1916 0 42 -28 c23 -15 54 -46 69 -69
l28 -42 0 -596 0 -596 -28 -42 c-15 -23 -46 -54 -69 -69 l-42 -28 -750 -5
c-413 -3 -759 -9 -769 -14 -21 -10 -47 -57 -47 -86 0 -34 27 -76 57 -89 21 -9
224 -11 783 -9 l755 3 67 32 c94 44 160 109 206 202 l37 75 0 626 0 626 -38
76 c-58 118 -159 200 -279 228 -24 5 -80 10 -125 10 -69 0 -82 3 -87 18 -3 9
-46 242 -96 517 -50 275 -96 520 -102 545 -18 74 -67 160 -127 223 -107 113
-166 134 -496 181 l-249 35 -90 91 -90 90 36 37 c82 86 148 224 168 353 8 49
10 163 8 330 -4 244 -5 258 -31 335 -38 114 -91 199 -179 287 -161 161 -396
229 -623 182z m260 -199 c141 -37 257 -131 319 -257 36 -72 63 -179 51 -198
-3 -6 -32 -10 -63 -10 -116 0 -252 49 -342 121 -31 25 -51 34 -80 34 -29 0
-49 -9 -80 -34 -90 -72 -226 -121 -342 -121 -31 0 -60 4 -63 10 -12 19 15 126
51 198 99 202 335 312 549 257z m-25 -583 c108 -53 180 -72 303 -79 l97 -6 0
-103 c0 -184 -40 -296 -144 -400 -97 -97 -210 -144 -347 -144 -187 0 -360 108
-438 274 -39 82 -51 147 -51 270 l0 103 103 6 c117 7 227 38 322 91 33 18 62
33 65 32 3 -1 43 -21 90 -44z m-248 -917 l38 -7 -63 -75 c-34 -41 -69 -83 -77
-94 -15 -19 -18 -18 -89 35 -41 31 -76 58 -79 61 -3 3 22 34 57 69 l63 64 57
-23 c31 -13 73 -26 93 -30z m588 -76 c0 -8 -150 -122 -154 -117 -1 1 -35 42
-74 89 -40 48 -72 89 -72 92 0 2 20 10 43 16 24 6 64 19 88 30 l44 19 63 -61
c34 -34 62 -64 62 -68z m-366 -176 c31 -37 56 -70 56 -73 0 -3 -27 -32 -60
-65 l-60 -60 -62 62 -61 62 57 70 c32 39 62 71 66 71 5 0 34 -30 64 -67z
m-609 -610 c115 -351 210 -644 213 -650 3 -10 -58 -13 -287 -13 l-291 0 0 296
0 296 -29 29 c-39 39 -89 40 -131 2 -30 -27 -33 -37 -88 -325 l-57 -298 -152
0 c-122 0 -153 3 -153 14 0 31 182 1005 196 1048 21 64 91 140 155 167 44 20
307 66 390 70 25 1 29 -10 234 -636z m1500 612 c195 -29 252 -50 314 -121 22
-25 47 -67 55 -92 14 -43 196 -1017 196 -1048 0 -11 -30 -14 -149 -14 -134 0
-150 2 -155 18 -3 9 -28 136 -56 282 -27 146 -55 278 -62 293 -19 48 -80 69
-133 45 -52 -24 -55 -43 -55 -353 l0 -285 -291 0 c-228 0 -290 3 -286 13 2 6
98 299 213 649 153 468 213 638 224 638 8 0 91 -11 185 -25z m-1227 -209 c37
-35 52 -56 52 -75 0 -14 -16 -118 -35 -231 -19 -113 -35 -209 -35 -215 -1 -10
-223 655 -235 702 -5 20 11 11 97 -53 57 -43 127 -100 156 -128z m801 187 c0
-5 -53 -168 -118 -363 l-117 -355 -39 233 -38 233 54 56 c52 53 236 201 252
202 4 1 7 -2 6 -6z m-483 -438 c2 -11 29 -171 59 -356 l55 -336 -21 -61 -21
-62 -118 0 -119 0 -19 64 -19 63 58 349 c32 192 59 351 59 354 0 3 18 5 40 5
33 0 42 -4 46 -20z"/>
<path d="M1421 1429 c-141 -27 -281 -137 -345 -271 -148 -307 42 -663 379
-711 130 -19 266 19 348 95 30 28 37 43 37 72 0 48 -13 72 -50 91 -44 22 -66
19 -133 -22 -56 -35 -66 -38 -136 -38 -59 0 -86 5 -122 23 -230 113 -230 431
0 544 71 35 187 33 260 -6 73 -38 117 -37 153 3 54 61 30 130 -63 176 -95 49
-220 65 -328 44z"/>
<path d="M3478 1424 c-85 -20 -155 -59 -224 -126 -207 -199 -207 -518 2 -718
338 -325 900 -34 834 432 -41 288 -328 481 -612 412z m245 -213 c228 -110 227
-431 -2 -543 -69 -34 -187 -32 -257 4 -64 34 -128 105 -148 165 -57 166 32
338 204 394 43 15 154 4 203 -20z"/>
<path d="M2237 1404 c-15 -14 -29 -40 -32 -58 -3 -17 -5 -215 -3 -439 l3 -409
33 -29 32 -29 200 0 200 0 32 29 c27 24 33 36 33 71 0 35 -6 47 -33 71 -32 29
-32 29 -168 29 l-135 0 3 98 3 97 128 5 c126 5 129 6 153 33 34 40 32 88 -5
129 l-29 33 -126 3 -126 4 0 94 0 94 128 0 c108 0 132 3 158 19 45 27 61 79
39 124 -9 19 -27 39 -41 46 -16 7 -96 11 -223 11 l-198 0 -26 -26z"/>
<path d="M2511 186 c-87 -48 -50 -186 49 -186 51 0 100 49 100 99 0 75 -83
124 -149 87z"/>
</g>
</svg>
