<?xml version="1.0" standalone="no"?>
<!DOCTYPE svg PUBLIC "-//W3C//DTD SVG 20010904//EN"
 "http://www.w3.org/TR/2001/REC-SVG-20010904/DTD/svg10.dtd">
<svg version="1.0" xmlns="http://www.w3.org/2000/svg"
 width="512.000000pt" height="512.000000pt" viewBox="0 0 512.000000 512.000000"
 preserveAspectRatio="xMidYMid meet">

<g transform="translate(0.000000,512.000000) scale(0.100000,-0.100000)"
fill="#c78665" stroke="none">
<path d="M3020 5113 c-16 -3 -113 -93 -265 -244 l-241 -239 -59 61 c-95 97
-130 119 -188 119 l-50 0 -119 -117 c-190 -188 -190 -184 71 -444 117 -116
212 -203 236 -215 57 -27 166 -26 220 3 22 12 194 176 388 370 l347 349 0 53
0 54 -102 104 c-57 58 -114 113 -128 123 -29 20 -74 30 -110 23z m-155 -613
c-207 -207 -318 -311 -336 -315 -43 -10 -73 13 -232 172 l-147 148 60 60 59
59 90 -87 c96 -93 131 -109 193 -88 22 7 109 87 268 246 l235 235 60 -60 60
-60 -310 -310z"/>
<path d="M785 3836 c-16 -8 -85 -69 -151 -137 -172 -176 -173 -195 -19 -349
52 -52 95 -99 95 -105 0 -6 -43 -53 -95 -105 -159 -158 -157 -181 28 -366 184
-183 202 -184 362 -24 l99 100 97 -95 c169 -167 191 -166 375 19 186 185 188
202 31 363 l-100 103 101 104 c155 162 153 182 -36 368 -182 180 -201 181
-360 25 l-102 -101 -98 96 c-119 119 -156 136 -227 104z m165 -281 l107 -105
53 0 53 0 109 107 108 107 75 -74 74 -74 -99 -102 c-153 -157 -153 -181 -2
-337 l106 -108 -74 -74 -74 -74 -105 103 c-111 108 -138 122 -203 109 -24 -5
-63 -36 -139 -109 l-105 -103 -74 74 -74 74 106 108 c151 156 151 180 -2 337
l-99 102 72 72 c39 40 74 72 76 72 3 0 53 -47 111 -105z"/>
<path d="M3685 3836 c-16 -8 -85 -69 -152 -137 -173 -176 -173 -188 -9 -364
l89 -96 -101 -102 c-156 -159 -154 -183 36 -369 179 -176 199 -177 357 -18
l99 100 97 -95 c169 -167 191 -166 375 19 114 114 133 136 138 171 10 61 -6
89 -111 197 l-96 97 101 105 c155 162 153 182 -36 368 -182 180 -201 181 -360
25 l-102 -101 -98 96 c-119 119 -156 136 -227 104z m165 -281 l107 -105 53 0
53 0 109 107 108 107 75 -74 74 -74 -99 -102 c-153 -157 -153 -181 -2 -337
l106 -108 -74 -74 -74 -74 -105 103 c-76 73 -115 104 -139 109 -65 13 -92 -1
-203 -109 l-105 -103 -74 74 -74 74 106 108 c151 156 151 180 -2 337 l-99 102
72 72 c39 40 74 72 76 72 3 0 53 -47 111 -105z"/>
<path d="M2415 3826 c-93 -18 -170 -49 -243 -95 -98 -64 -151 -154 -160 -273
-3 -50 -9 -68 -19 -68 -33 0 -75 -33 -94 -73 -50 -112 -2 -267 103 -333 32
-20 38 -30 38 -59 0 -64 38 -143 97 -201 64 -63 65 -51 -9 -181 -37 -65 -45
-73 -77 -79 -128 -21 -267 -76 -368 -145 -27 -19 -48 -28 -50 -22 -2 6 -18 32
-34 57 -164 246 -705 276 -933 52 -68 -67 -98 -131 -104 -223 -3 -54 -8 -73
-19 -73 -62 0 -112 -77 -113 -171 0 -99 37 -172 116 -229 37 -26 44 -37 44
-65 0 -64 38 -143 97 -201 64 -63 64 -51 -9 -181 -41 -71 -41 -72 -92 -78
-174 -24 -379 -135 -464 -253 -82 -113 -128 -271 -120 -416 7 -132 57 -219
174 -302 336 -240 1225 -282 1718 -81 150 61 250 147 298 254 62 139 12 414
-101 557 -89 112 -291 218 -457 241 -51 6 -51 7 -92 78 -74 130 -73 119 -11
186 30 32 57 59 61 60 4 0 32 -14 61 -33 124 -79 300 -132 572 -173 152 -23
518 -23 670 0 278 41 479 105 595 187 15 11 32 19 37 19 4 -1 32 -28 62 -60
l55 -59 -18 -38 c-10 -20 -34 -65 -54 -99 -36 -60 -39 -62 -87 -69 -175 -24
-389 -140 -468 -256 -79 -115 -123 -271 -115 -412 7 -132 57 -219 174 -302
336 -240 1225 -282 1718 -81 211 86 314 208 324 383 8 145 -38 303 -120 416
-85 118 -290 229 -464 253 -51 6 -51 7 -92 78 -73 129 -73 120 -15 175 62 60
93 117 100 189 5 50 9 56 49 85 42 30 78 76 102 131 16 38 15 150 -2 192 -15
35 -67 75 -98 75 -15 0 -18 9 -18 55 0 218 -202 373 -511 392 -224 13 -439
-69 -528 -203 -16 -25 -31 -50 -33 -56 -2 -6 -39 12 -81 40 -100 66 -203 104
-338 126 -32 6 -40 14 -77 79 -74 130 -73 121 -15 175 61 57 93 116 100 189 5
49 9 57 42 78 43 26 83 76 105 129 21 51 21 158 -1 203 -17 36 -65 73 -94 73
-13 0 -17 14 -21 73 -6 89 -36 155 -98 218 -51 51 -163 110 -255 134 -85 22
-254 28 -340 11z m272 -172 c126 -26 209 -78 239 -151 21 -48 20 -233 -1 -331
-8 -40 -15 -114 -15 -164 0 -108 -13 -139 -76 -188 -25 -19 -72 -65 -105 -102
l-61 -68 -108 0 -108 0 -61 68 c-33 37 -80 83 -105 102 -63 49 -76 80 -76 188
0 50 -7 124 -15 164 -9 40 -16 124 -16 186 -1 95 3 119 21 156 57 119 281 183
487 140z m-258 -1171 c47 -10 215 -10 262 0 21 4 53 18 72 32 l36 24 30 -55
c17 -29 31 -58 31 -64 0 -29 -220 -110 -300 -110 -80 0 -300 81 -300 110 0 6
14 35 31 64 l30 55 36 -24 c19 -14 51 -28 72 -32z m-1186 -109 c118 -27 196
-73 227 -134 17 -33 20 -59 20 -162 0 -68 -5 -141 -11 -163 -5 -22 -13 -99
-17 -172 l-8 -131 -121 -121 -121 -121 -102 0 -101 0 -113 113 c-62 61 -118
122 -124 134 -7 12 -12 62 -12 111 0 50 -7 124 -16 166 -11 53 -15 115 -12
200 3 113 5 126 29 162 69 104 297 159 482 118z m2900 0 c124 -28 200 -75 229
-141 25 -56 26 -232 3 -341 -8 -40 -15 -114 -15 -163 0 -50 -5 -100 -12 -112
-6 -12 -62 -73 -124 -134 l-112 -113 -102 0 -102 0 -121 121 -121 121 -8 131
c-4 73 -12 150 -17 172 -16 63 -14 269 3 310 52 125 291 196 499 149z m-2054
-145 c37 -97 136 -234 251 -350 121 -122 182 -169 220 -169 93 0 409 349 472
522 25 69 35 71 141 33 82 -28 166 -77 209 -122 l31 -32 -31 -29 c-41 -39 -52
-69 -52 -149 0 -82 23 -135 87 -197 l45 -45 -33 -32 c-80 -75 -298 -149 -546
-185 -161 -24 -485 -24 -646 0 -248 36 -467 110 -546 185 l-34 32 46 46 c63
63 87 117 87 197 0 79 -11 109 -53 148 l-32 30 43 39 c57 50 122 87 202 116
103 36 111 34 139 -38z m345 -75 c107 -28 260 -14 349 33 16 8 31 12 33 10 16
-16 -226 -287 -256 -287 -26 0 -187 173 -245 263 l-18 29 38 -16 c21 -9 65
-23 99 -32z m-1351 -952 c152 -4 183 0 230 33 l36 24 30 -55 c17 -29 31 -59
31 -64 0 -28 -225 -110 -300 -110 -75 0 -300 82 -300 110 0 5 14 35 31 65 l31
54 40 -27 c39 -25 50 -27 171 -30z m2760 13 c26 -11 72 -15 167 -15 133 0 181
10 221 46 15 14 19 10 48 -40 17 -31 31 -61 31 -66 0 -28 -225 -110 -300 -110
-75 0 -300 82 -300 110 0 5 14 35 31 66 29 50 33 54 48 40 9 -8 33 -22 54 -31z
m-3205 -264 c38 -98 138 -238 252 -352 122 -123 182 -169 220 -169 38 0 98 46
220 169 116 117 214 253 251 351 l24 62 43 -6 c58 -8 177 -59 234 -101 27 -19
63 -56 82 -83 65 -89 102 -258 77 -350 -16 -58 -80 -121 -162 -160 -206 -98
-611 -157 -917 -134 -398 31 -678 121 -759 243 -26 39 -28 50 -27 133 1 131
54 266 129 328 68 56 227 127 285 128 21 0 28 -9 48 -59z m2901 -2 c38 -97
136 -234 251 -350 122 -123 182 -169 220 -169 93 0 404 344 472 522 l23 60 43
-6 c58 -8 177 -59 234 -101 27 -19 63 -56 82 -83 65 -89 102 -258 77 -350 -41
-151 -329 -259 -783 -294 -111 -8 -185 -8 -296 0 -397 31 -678 121 -759 243
-26 39 -28 50 -28 133 1 69 6 107 24 155 23 67 71 144 106 173 68 56 227 127
285 128 22 0 28 -9 49 -61z m-2614 -56 c22 -8 73 -21 113 -28 94 -17 194 -1
317 51 20 8 20 8 1 -21 -55 -87 -221 -265 -246 -265 -25 0 -191 178 -246 265
-19 29 -19 29 1 21 11 -5 38 -15 60 -23z m2900 0 c22 -8 73 -21 113 -28 94
-17 194 -1 317 51 20 8 20 8 1 -21 -55 -87 -221 -265 -246 -265 -25 0 -191
178 -246 265 -19 29 -19 29 1 21 11 -5 38 -15 60 -23z"/>
</g>
</svg>
