<?xml version="1.0" standalone="no"?>
<!DOCTYPE svg PUBLIC "-//W3C//DTD SVG 20010904//EN"
 "http://www.w3.org/TR/2001/REC-SVG-20010904/DTD/svg10.dtd">
<svg version="1.0" xmlns="http://www.w3.org/2000/svg"
 width="512.000000pt" height="512.000000pt" viewBox="0 0 512.000000 512.000000"
 preserveAspectRatio="xMidYMid meet">

<g transform="translate(0.000000,512.000000) scale(0.100000,-0.100000)"
fill="#c78665" stroke="none">
<path d="M4030 5031 c-359 -66 -649 -337 -746 -697 -15 -55 -19 -102 -18 -229
1 -143 3 -169 27 -248 49 -161 114 -270 242 -407 127 -136 146 -181 155 -364
7 -155 18 -193 69 -243 l31 -31 0 -164 c0 -90 5 -180 11 -201 13 -47 60 -102
113 -130 39 -21 53 -22 276 -22 210 0 239 2 270 19 49 26 79 55 103 101 19 36
22 60 25 220 l4 180 28 30 c49 51 62 97 69 251 7 127 10 148 36 200 17 34 63
95 111 146 95 102 139 166 194 280 65 136 83 219 84 388 0 121 -4 159 -23 230
-88 328 -323 569 -648 666 -73 22 -112 27 -228 30 -77 1 -160 -1 -185 -5z
m395 -175 c113 -36 227 -106 310 -190 90 -90 141 -169 181 -276 78 -209 69
-417 -26 -616 -43 -89 -80 -140 -186 -254 -128 -139 -154 -201 -163 -409 -7
-141 -8 -144 -35 -167 l-27 -24 -290 0 -291 0 -29 29 c-28 29 -29 32 -29 135
0 203 -40 301 -185 457 -138 147 -196 252 -229 411 -40 194 -7 392 95 566 44
73 188 217 261 261 145 85 255 112 433 107 106 -3 145 -8 210 -30z m15 -2216
c0 -74 -5 -140 -11 -154 -20 -42 -51 -47 -258 -44 -245 4 -231 -8 -231 189 l0
139 250 0 250 0 0 -130z"/>
<path d="M4147 4478 c-20 -16 -37 -60 -37 -98 0 -24 -5 -29 -33 -34 -45 -8
-115 -70 -138 -120 -25 -56 -25 -176 0 -231 23 -51 75 -101 119 -116 19 -6 78
-14 131 -18 89 -6 96 -8 109 -31 17 -33 10 -116 -12 -138 -11 -12 -38 -18 -89
-20 -89 -3 -118 10 -128 58 -14 67 -79 91 -124 45 -65 -64 19 -224 128 -242
32 -5 37 -9 37 -33 0 -40 20 -89 40 -100 56 -30 110 9 110 78 0 32 4 44 18 48
83 27 123 57 155 118 29 55 31 193 3 246 -47 89 -89 112 -223 120 -128 7 -143
18 -143 100 0 79 14 90 117 90 45 0 88 -3 97 -6 8 -3 18 -21 22 -40 15 -82
116 -100 142 -25 27 78 -48 198 -137 217 -49 11 -51 13 -51 57 0 33 -6 49 -23
65 -26 24 -65 28 -90 10z"/>
<path d="M1515 4219 c-28 -3 -64 -13 -81 -22 -42 -22 -99 -82 -119 -126 -15
-34 -20 -37 -80 -49 -251 -47 -453 -231 -535 -487 -19 -58 -24 -100 -28 -246
-5 -202 -4 -207 83 -427 l54 -137 -33 -35 c-49 -51 -56 -85 -56 -258 0 -138 2
-161 21 -200 28 -58 84 -94 153 -100 l53 -4 5 -93 c3 -51 8 -97 12 -104 4 -7
38 -11 86 -11 l79 0 -14 41 c-12 34 -15 127 -15 525 l0 484 28 5 c126 25 219
83 280 175 22 33 42 64 44 70 2 7 29 -1 69 -19 92 -44 165 -50 562 -51 378 0
391 -2 450 -58 16 -15 39 -45 50 -67 21 -39 22 -51 25 -495 3 -421 -2 -536
-24 -595 -5 -13 7 -15 74 -15 92 0 85 -9 98 133 l7 77 34 0 c38 0 98 23 126
48 11 9 28 34 38 54 16 32 19 60 19 210 0 157 -2 176 -21 208 -11 19 -32 44
-46 56 l-25 21 43 129 42 129 4 223 c4 180 2 238 -12 304 -33 161 -107 300
-224 419 -122 123 -261 200 -421 233 -41 8 -212 24 -380 35 -168 12 -321 22
-340 24 -19 2 -58 0 -85 -4z m666 -187 c298 -27 521 -196 615 -467 27 -76 29
-90 32 -297 l4 -217 -34 -112 -33 -112 -7 79 c-10 113 -15 136 -44 191 -44 84
-123 153 -214 187 -14 5 -209 12 -435 16 -468 7 -467 7 -559 91 -66 60 -97
127 -106 232 -8 89 -26 117 -73 117 -18 0 -41 -9 -54 -22 -20 -18 -23 -31 -23
-88 0 -79 21 -166 57 -231 24 -45 25 -51 13 -94 -15 -55 -78 -128 -133 -156
-25 -13 -68 -23 -116 -26 -118 -9 -121 -13 -121 -187 0 -77 -4 -136 -8 -131
-5 6 -34 76 -65 157 l-57 146 0 145 c0 233 40 348 166 474 93 92 206 143 356
158 67 7 91 30 101 93 8 45 43 82 88 91 30 6 409 -16 650 -37z m-1231 -1592
l0 -160 -28 0 c-48 0 -52 13 -52 160 0 147 4 160 52 160 l28 0 0 -160z m1868
152 c9 -7 12 -45 10 -158 l-3 -149 -32 -3 -33 -3 0 160 c0 160 0 161 23 161
12 0 28 -4 35 -8z"/>
<path d="M2120 2853 c-51 -19 -68 -85 -30 -123 18 -18 33 -20 164 -20 144 0
145 0 165 26 12 15 21 33 21 40 0 29 -25 64 -53 74 -31 10 -240 13 -267 3z"/>
<path d="M1312 2827 c-39 -41 -25 -97 29 -116 19 -6 104 -11 204 -11 127 0
175 -3 183 -13 6 -7 12 -79 14 -166 3 -147 4 -154 27 -172 32 -26 73 -24 99 4
21 22 22 33 22 183 0 146 -2 164 -22 204 -13 24 -40 58 -61 74 l-39 31 -217 3
-217 3 -22 -24z"/>
<path d="M1445 2599 c-51 -29 -60 -85 -20 -124 48 -49 125 -16 125 54 0 57
-58 96 -105 70z"/>
<path d="M2208 2596 c-10 -7 -22 -25 -27 -39 -30 -78 71 -136 126 -73 30 35
29 71 -2 101 -27 27 -70 32 -97 11z"/>
<path d="M1594 2233 c-12 -2 -34 -18 -50 -34 -28 -29 -29 -34 -28 -127 0 -78
5 -107 23 -147 28 -63 72 -110 136 -143 44 -23 64 -27 170 -30 105 -3 127 -1
179 18 67 25 130 83 161 145 28 56 34 234 10 271 -32 49 -63 54 -332 53 -136
-1 -258 -4 -269 -6z m466 -190 c0 -60 -26 -104 -73 -126 -44 -21 -193 -23
-241 -3 -40 17 -72 59 -81 109 -13 68 -17 67 200 67 l195 0 0 -47z"/>
<path d="M4160 2107 c-50 -25 -50 -20 -50 -672 0 -693 4 -655 -85 -733 -46
-40 -95 -62 -143 -62 -13 0 -36 -7 -51 -15 -47 -24 -54 -66 -19 -110 20 -26
25 -27 89 -23 136 10 262 99 323 228 l31 65 3 646 c2 608 2 646 -15 661 -27
24 -55 29 -83 15z"/>
<path d="M1153 1573 c-7 -2 -44 -45 -83 -94 -40 -51 -80 -91 -93 -94 -12 -2
-80 -14 -152 -25 -162 -26 -231 -44 -313 -81 -231 -104 -402 -303 -479 -556
-25 -83 -27 -102 -31 -338 -4 -245 -3 -251 18 -277 l21 -28 1805 0 c1773 0
1804 0 1823 19 11 11 23 37 27 57 12 64 -3 422 -21 508 -35 162 -101 289 -215
409 -162 172 -291 235 -578 282 -114 19 -159 31 -168 43 -7 9 -39 52 -73 94
-64 81 -94 99 -134 80 -12 -6 -163 -139 -335 -296 l-312 -287 -288 263 c-158
145 -304 278 -325 296 -35 30 -64 38 -94 25z m305 -418 c141 -130 257 -240
257 -245 0 -6 -65 -60 -145 -121 l-145 -111 -71 149 c-38 81 -105 223 -148
315 l-79 167 32 40 c18 23 35 41 37 41 2 0 120 -106 262 -235z m1101 196 c17
-21 31 -42 31 -45 0 -6 -256 -551 -283 -602 l-13 -24 -144 110 c-80 60 -145
114 -145 119 0 10 505 479 517 480 3 1 20 -17 37 -38z m-1393 -477 c93 -198
177 -362 188 -370 39 -27 69 -17 163 56 50 38 96 70 101 70 5 0 15 -11 22 -25
11 -20 10 -48 -4 -172 -9 -81 -19 -160 -22 -176 l-6 -27 -729 0 -729 0 0 159
c0 96 6 189 14 233 47 247 216 446 459 541 51 19 282 64 343 66 l31 1 169
-356z m1732 326 c72 -11 155 -32 199 -50 204 -82 368 -270 424 -487 14 -57 22
-126 26 -256 l6 -177 -719 2 -718 3 -21 175 c-19 154 -20 178 -7 198 8 12 16
22 18 22 3 0 46 -31 98 -70 95 -72 124 -82 162 -56 11 8 94 169 188 370 164
345 169 355 195 351 14 -3 81 -14 149 -25z m-981 -421 c67 -52 68 -54 48 -85
-36 -55 -124 -66 -179 -23 -53 42 -52 53 11 103 32 25 60 45 62 46 2 0 28 -19
58 -41z m14 -283 c0 -1 8 -61 18 -133 l17 -133 -103 0 c-102 0 -103 0 -99 23
3 12 10 69 17 127 6 58 13 107 14 110 2 4 132 9 136 6z"/>
</g>
</svg>
