<?xml version="1.0" standalone="no"?>
<!DOCTYPE svg PUBLIC "-//W3C//DTD SVG 20010904//EN"
 "http://www.w3.org/TR/2001/REC-SVG-20010904/DTD/svg10.dtd">
<svg version="1.0" xmlns="http://www.w3.org/2000/svg"
 width="512.000000pt" height="512.000000pt" viewBox="0 0 512.000000 512.000000"
 preserveAspectRatio="xMidYMid meet">

<g transform="translate(0.000000,512.000000) scale(0.100000,-0.100000)"
fill="#c78665" stroke="none">
<path d="M1415 5104 c-92 -22 -117 -30 -163 -56 -65 -36 -139 -109 -176 -172
-43 -74 -60 -141 -59 -241 0 -102 22 -171 79 -256 19 -28 34 -52 34 -54 0 -2
-19 -6 -42 -10 -78 -12 -181 -70 -237 -131 -114 -124 -121 -160 -121 -591 l0
-343 -267 0 c-165 0 -283 -4 -308 -11 -53 -15 -129 -91 -144 -144 -8 -28 -11
-408 -11 -1296 l0 -1255 28 -55 c18 -35 42 -64 70 -84 l44 -30 294 -3 294 -3
0 -110 c0 -125 15 -170 72 -211 l33 -23 634 -3 633 -2 43 25 c66 38 85 86 85
218 l0 107 90 0 c104 0 130 15 130 73 0 56 -27 71 -131 75 l-89 4 0 104 0 104
330 0 330 0 0 -104 0 -104 -94 -4 c-109 -4 -136 -18 -136 -75 0 -59 25 -73
135 -73 l95 0 0 -107 c0 -132 19 -180 85 -218 l43 -25 633 2 634 3 33 23 c57
41 72 86 72 211 l0 110 294 3 294 3 43 30 c27 19 54 50 71 84 l28 53 0 630 c0
384 -4 636 -10 647 -5 10 -22 24 -39 30 -24 10 -34 10 -59 -3 -16 -8 -32 -23
-36 -31 -3 -9 -6 -212 -6 -451 l0 -435 -25 -24 -24 -25 -269 0 -268 0 -13 50
c-36 142 -175 269 -328 301 -29 6 -53 13 -53 16 0 3 12 19 27 37 60 71 99 203
90 305 -25 280 -267 474 -539 431 -316 -49 -493 -412 -335 -689 11 -20 29 -46
40 -58 11 -13 19 -25 16 -27 -2 -2 -32 -11 -67 -20 -153 -39 -285 -170 -316
-314 l-8 -32 -338 0 -338 0 -8 32 c-21 99 -109 215 -206 271 -26 15 -75 34
-110 43 -35 9 -65 18 -67 20 -3 2 5 14 16 27 108 121 129 328 48 492 -139 286
-521 351 -743 126 -84 -84 -142 -218 -142 -328 0 -93 42 -218 93 -279 15 -18
27 -34 27 -37 0 -3 -24 -10 -52 -16 -154 -32 -293 -159 -329 -301 l-13 -50
-268 0 -269 0 -24 25 -25 24 0 1061 0 1061 25 24 24 25 595 0 594 0 4 -198 3
-199 30 -48 c22 -36 45 -57 84 -77 52 -27 57 -28 216 -28 l163 0 4 -197 c3
-196 3 -198 31 -246 15 -26 47 -60 69 -75 l41 -27 293 -5 c161 -3 294 -7 297
-10 2 -3 66 -81 142 -173 80 -98 148 -173 164 -178 37 -14 84 -3 112 27 23 24
24 34 29 177 l5 152 65 6 c112 9 180 72 201 184 7 36 9 147 7 285 -3 187 -7
232 -21 265 -23 51 -52 81 -102 108 -36 19 -59 22 -212 25 l-173 4 0 114 0
114 1040 0 1041 0 24 -25 25 -24 0 -469 c0 -460 0 -470 21 -496 28 -36 80 -36
108 0 21 26 21 36 21 498 0 313 -4 484 -11 511 -15 53 -91 129 -144 144 -25 7
-143 11 -307 11 l-268 0 0 343 c0 431 -7 467 -121 591 -56 61 -159 119 -236
131 -24 4 -43 8 -43 10 0 2 15 26 34 54 57 85 79 154 79 256 1 100 -16 167
-59 241 -58 98 -170 185 -279 215 -65 18 -186 18 -250 0 -222 -63 -367 -286
-334 -516 10 -74 50 -170 92 -220 l24 -29 -70 -18 c-124 -32 -220 -105 -283
-217 -48 -87 -54 -138 -54 -503 l0 -338 -25 0 c-19 0 -28 9 -43 43 -21 47 -69
92 -119 114 -24 9 -90 13 -253 13 l-220 0 0 253 c0 274 -8 336 -54 418 -63
112 -159 185 -283 217 l-70 18 24 29 c42 50 82 146 92 220 32 224 -105 444
-319 511 -48 15 -172 26 -205 18z m196 -176 c281 -131 227 -540 -80 -598 -95
-18 -193 13 -270 85 -67 63 -95 128 -95 225 0 146 76 252 217 302 69 25 156
19 228 -14z m2161 0 c116 -53 182 -159 182 -288 0 -97 -28 -162 -95 -225 -189
-176 -481 -79 -529 175 -19 98 14 201 87 273 95 96 232 121 355 65z m-1851
-791 c40 -20 75 -48 96 -75 55 -73 63 -118 63 -370 l0 -223 -114 138 c-62 76
-123 146 -134 157 -27 24 -90 25 -125 2 -38 -26 -47 -65 -47 -212 l0 -134 -41
0 c-95 0 -181 -55 -210 -134 l-13 -36 -98 0 -98 0 0 245 c0 232 -1 246 -20
265 -33 33 -75 30 -107 -6 -23 -25 -23 -30 -23 -265 l0 -239 -85 0 -86 0 3
358 c3 352 3 358 26 402 39 75 84 114 167 147 21 8 143 12 407 12 l376 1 63
-33z m2159 5 c60 -32 102 -73 131 -130 24 -47 24 -49 27 -404 l3 -358 -86 0
-85 0 0 239 c0 235 0 240 -22 265 -33 36 -75 39 -108 6 -19 -19 -20 -33 -20
-265 l0 -245 -280 0 -280 0 0 244 c0 218 -2 246 -18 265 -24 30 -76 31 -105 2
-21 -21 -22 -30 -25 -266 l-3 -245 -84 0 -85 0 0 333 c0 371 4 401 63 479 21
27 56 55 96 76 l64 33 386 -3 c382 -3 386 -3 431 -26z m-2177 -694 c107 -129
135 -156 178 -168 18 -6 154 -10 301 -10 255 0 269 -1 288 -20 19 -19 20 -33
20 -200 l0 -180 -301 0 c-200 0 -315 -4 -340 -12 -52 -15 -114 -69 -135 -118
l-18 -40 -155 0 c-217 0 -201 -23 -201 285 0 289 -4 280 120 287 126 8 150 37
150 182 0 53 2 96 4 96 3 0 43 -46 89 -102z m1273 -752 c11 -16 14 -69 14
-266 0 -290 6 -274 -112 -283 -125 -9 -148 -35 -157 -179 l-6 -100 -98 120
c-63 78 -111 126 -135 138 -33 17 -67 19 -307 22 -148 1 -280 4 -291 7 -40 9
-45 47 -42 294 3 232 3 233 27 252 23 19 43 19 558 17 516 -3 535 -4 549 -22z
m-1634 -827 c67 -14 99 -31 149 -76 82 -74 118 -181 98 -290 -12 -68 -43 -124
-96 -175 -119 -115 -318 -111 -437 8 -122 122 -122 327 0 447 46 46 100 75
157 87 60 11 70 11 129 -1z m2233 -23 c196 -90 242 -356 89 -510 -119 -119
-318 -123 -437 -8 -82 79 -116 182 -96 289 13 70 29 102 76 153 94 105 239
135 368 76z m-1880 -777 c68 -25 137 -92 162 -156 16 -43 18 -82 18 -393 l0
-345 -82 -3 -82 -3 -3 245 c-3 223 -5 246 -22 265 -25 27 -79 28 -106 1 -19
-19 -20 -33 -20 -265 l0 -245 -280 0 -280 0 0 243 c0 231 -1 244 -20 265 -30
32 -82 30 -109 -4 -20 -25 -21 -39 -21 -265 l0 -239 -85 0 -85 0 0 338 c0 190
4 352 10 372 15 56 65 126 109 156 79 52 89 53 478 54 342 0 365 -1 418 -21z
m2181 -6 c63 -34 97 -66 129 -125 l30 -53 3 -357 3 -358 -86 0 -85 0 0 239 c0
226 -1 240 -21 265 -27 34 -79 36 -109 4 -19 -21 -20 -34 -20 -265 l0 -243
-280 0 -280 0 0 245 c0 232 -1 246 -20 265 -27 27 -81 26 -106 -1 -17 -19 -19
-42 -22 -265 l-3 -245 -82 3 -82 3 0 345 c0 394 2 405 81 484 84 84 93 86 529
83 370 -2 381 -3 421 -24z m-3613 -333 l267 0 0 -105 0 -105 -270 0 c-327 0
-310 -7 -310 133 0 88 0 89 23 83 12 -3 142 -6 290 -6z m4507 -78 c0 -139 17
-132 -310 -132 l-270 0 0 105 0 105 278 3 c152 1 283 3 290 5 9 1 12 -21 12
-86z"/>
</g>
</svg>
