<?xml version="1.0" standalone="no"?>
<!DOCTYPE svg PUBLIC "-//W3C//DTD SVG 20010904//EN"
 "http://www.w3.org/TR/2001/REC-SVG-20010904/DTD/svg10.dtd">
<svg version="1.0" xmlns="http://www.w3.org/2000/svg"
 width="512.000000pt" height="512.000000pt" viewBox="0 0 512.000000 512.000000"
 preserveAspectRatio="xMidYMid meet">

<g transform="translate(0.000000,512.000000) scale(0.100000,-0.100000)"
fill="#c78665" stroke="none">
<path d="M2320 4949 c-544 -55 -1066 -304 -1455 -694 -279 -279 -471 -595
-594 -978 -321 -1006 74 -2125 958 -2712 311 -206 622 -323 1026 -387 109 -17
495 -17 610 1 212 31 346 65 530 133 460 169 863 484 1147 898 418 609 530
1391 298 2090 -26 80 -62 178 -80 218 l-33 73 -146 -144 c-156 -153 -179 -167
-275 -167 -25 0 -46 -2 -46 -4 0 -2 18 -58 40 -124 132 -396 133 -788 1 -1182
-226 -676 -834 -1161 -1553 -1239 -537 -59 -1092 137 -1480 523 -626 621 -726
1585 -241 2321 459 696 1340 996 2129 724 63 -21 116 -39 119 -39 3 0 5 21 5
46 0 96 14 119 168 276 l144 147 -33 14 c-19 8 -61 26 -94 40 -184 77 -459
145 -679 166 -126 13 -342 12 -466 0z"/>
<path d="M3743 4657 l-303 -302 0 -280 0 -280 -549 -550 c-529 -530 -550 -552
-565 -604 -20 -68 -20 -94 0 -160 20 -68 82 -131 149 -154 61 -21 97 -21 166
-1 52 15 74 36 604 565 l551 549 279 0 280 0 302 303 c274 273 303 305 303
335 0 22 -8 41 -25 57 -24 25 -25 25 -220 25 l-197 0 52 57 c50 57 80 125 80
183 0 58 -31 132 -74 174 -102 102 -246 100 -361 -6 l-55 -50 0 196 c0 196 0
197 -25 221 -16 17 -35 25 -57 25 -30 0 -62 -29 -335 -303z"/>
<path d="M2415 3833 c-205 -26 -403 -101 -575 -216 -96 -64 -273 -241 -337
-337 -95 -142 -163 -302 -199 -470 -26 -119 -26 -381 0 -500 56 -259 167 -462
355 -651 251 -252 544 -373 901 -373 170 0 260 14 412 64 310 103 586 346 737
648 129 257 163 588 90 875 -21 83 -74 225 -90 242 -6 6 -87 -68 -224 -205
l-214 -214 6 -86 c33 -467 -391 -844 -851 -756 -257 50 -469 238 -553 491 -23
71 -26 96 -26 215 0 119 3 144 26 215 38 115 91 199 182 290 91 91 175 144
290 182 70 23 98 27 218 28 l138 1 209 209 c116 116 210 213 210 218 0 11
-101 54 -194 82 -147 45 -373 66 -511 48z"/>
</g>
</svg>
